<?xml version="1.0" encoding="UTF-8" standalone="no"?>
<svg width="185px" height="185px" viewBox="0 0 185 185" version="1.1" xmlns="http://www.w3.org/2000/svg" xmlns:xlink="http://www.w3.org/1999/xlink" xmlns:sketch="http://www.bohemiancoding.com/sketch/ns">
    <!-- Generator: Sketch 3.3.3 (12072) - http://www.bohemiancoding.com/sketch -->
    <title>ios_sdk</title>
    <desc>Created with Sketch.</desc>
    <defs>
        <rect id="path-1" x="0" y="0" width="185" height="185" rx="6"></rect>
        <path id="path-3" d="M76.7925568,312.153935 L0,312.153935 L0,0 L153.585114,0 L153.585114,312.153935 L76.7925568,312.153935 L76.7925568,312.153935 Z"></path>
        <path id="path-5" d="M1.69065841,0 C0.757061899,0 0,0.753241017 0,1.69648878 C0,2.63379883 0.762154244,3.39297755 1.69065841,3.39297755 L23.7710647,3.39297755 C24.7046612,3.39297755 25.4617231,2.63973654 25.4617231,1.69648878 C25.4617231,0.759178728 24.6995688,0 23.7710647,0 L1.69065841,0 L1.69065841,0 Z"></path>
        <path id="path-7" d="M76.7925568,312.153935 L0,312.153935 L0,0 L153.585114,0 L153.585114,312.153935 L76.7925568,312.153935 L76.7925568,312.153935 Z"></path>
        <path id="path-9" d="M18.6778713,0 C8.36247858,0 0,8.35605547 0,18.6571353 L0,284.166111 C0,294.469736 8.35823496,302.823247 18.6778713,302.823247 L124.756502,302.823247 C135.071895,302.823247 143.434373,294.467191 143.434373,284.166111 L143.434373,18.6571353 C143.434373,8.35351074 135.076138,0 124.756502,0 L18.6778713,0 L18.6778713,0 Z"></path>
        <path id="path-11" d="M18.6778713,-2.84217094e-14 C8.36247858,-2.84217094e-14 1.42108547e-14,8.35605547 1.42108547e-14,18.6571353 L1.42108547e-14,284.166111 C1.42108547e-14,294.469736 8.35823496,302.823247 18.6778713,302.823247 L124.756502,302.823247 C135.071895,302.823247 143.434373,294.467191 143.434373,284.166111 L143.434373,18.6571353 C143.434373,8.35351074 135.076138,-2.84217094e-14 124.756502,-2.84217094e-14 L18.6778713,-2.84217094e-14 L18.6778713,-2.84217094e-14 Z"></path>
        <path id="path-13" d="M76.7925568,313.153935 L0,313.153935 L0,1 L153.585114,1 L153.585114,313.153935 L76.7925568,313.153935"></path>
        <path id="path-15" d="M1.69829693,0 C0.760456796,0 0,0.762571705 0,1.69648878 L0,234.115451 C0,235.052761 0.76130552,235.81194 1.69829693,235.81194 L130.702663,235.81194 C131.640503,235.81194 132.40096,235.049368 132.40096,234.115451 L132.40096,1.69648878 C132.40096,0.759178728 131.639654,0 130.702663,0 L1.69829693,0 L1.69829693,0 Z"></path>
        <path id="path-17" d="M76.7925568,312.153935 L0,312.153935 L0,0 L153.585114,0 L153.585114,312.153935 L76.7925568,312.153935 L76.7925568,312.153935 Z"></path>
    </defs>
    <g id="Page-1" stroke="none" stroke-width="1" fill="none" fill-rule="evenodd" sketch:type="MSPage">
        <g id="Artboard-1" sketch:type="MSArtboardGroup" transform="translate(-84.000000, -86.000000)">
            <g id="ios_sdk" sketch:type="MSLayerGroup" transform="translate(84.000000, 86.000000)">
                <mask id="mask-2" sketch:name="Mask" fill="white">
                    <use xlink:href="#path-1"></use>
                </mask>
                <use id="Mask" fill="#2B3641" sketch:type="MSShapeGroup" xlink:href="#path-1"></use>
                <g id="iPhone-6-wireframe" mask="url(#mask-2)">
                    <g transform="translate(122.657325, 185.861118) rotate(-15.000000) translate(-122.657325, -185.861118) translate(45.157325, 28.361118)">
                        <g id="Group-3" transform="translate(1.000000, 1.228953)">
                            <mask id="mask-4" sketch:name="Clip 2" fill="white">
                                <use xlink:href="#path-3"></use>
                            </mask>
                            <g id="Clip-2"></g>
                            <path d="M53.4696184,22.9025985 C54.8759543,22.9025985 56.0157908,21.7634063 56.0157908,20.3578653 C56.0157908,18.9523244 54.8759543,17.8131322 53.4696184,17.8131322 C52.0632826,17.8131322 50.9234461,18.9523244 50.9234461,20.3578653 C50.9234461,21.7634063 52.0632826,22.9025985 53.4696184,22.9025985 L53.4696184,22.9025985 Z" id="Stroke-1" stroke="#2CE1D0" sketch:type="MSShapeGroup" mask="url(#mask-4)"></path>
                        </g>
                        <g id="Group-6" transform="translate(65.503032, 19.890329)">
                            <mask id="mask-6" sketch:name="Clip 5" fill="white">
                                <use xlink:href="#path-5"></use>
                            </mask>
                            <g id="Clip-5"></g>
                            <path d="M1.69065841,0 C0.757061899,0 0,0.753241017 0,1.69648878 C0,2.63379883 0.762154244,3.39297755 1.69065841,3.39297755 L23.7710647,3.39297755 C24.7046612,3.39297755 25.4617231,2.63973654 25.4617231,1.69648878 C25.4617231,0.759178728 24.6995688,0 23.7710647,0 L1.69065841,0 L1.69065841,0 Z" id="Stroke-4" stroke="#2CE1D0" stroke-width="2" sketch:type="MSShapeGroup" mask="url(#mask-6)"></path>
                        </g>
                        <g id="Group-10" transform="translate(1.000000, 1.228953)">
                            <mask id="mask-8" sketch:name="Clip 8" fill="white">
                                <use xlink:href="#path-7"></use>
                            </mask>
                            <g id="Clip-8"></g>
                            <path d="M152.770338,89.7468011 L152.770338,289.258123 C152.770338,301.436367 142.890341,311.305691 130.701814,311.305691 L23.7659723,311.305691 C11.5808404,311.305691 1.6974482,301.434671 1.6974482,289.258123 L1.6974482,22.8958125 C1.6974482,10.7175679 11.5774455,0.848244389 23.7659723,0.848244389 L130.701814,0.848244389 C142.886946,0.848244389 152.770338,10.7192643 152.770338,22.8958125 L152.770338,67.1801073 C152.564098,67.3336396 152.430849,67.5787822 152.430849,67.8536134 L152.430849,89.0715985 C152.430849,89.3481262 152.56325,89.5932688 152.770338,89.7468011 L152.770338,89.7468011 Z" id="Stroke-7" stroke="#2CE1D0" sketch:type="MSShapeGroup" mask="url(#mask-8)"></path>
                            <path d="M152.770338,89.7468011 L152.770338,289.258123 C152.770338,301.436367 142.890341,311.305691 130.701814,311.305691 L23.7659723,311.305691 C11.5808404,311.305691 1.6974482,301.434671 1.6974482,289.258123 L1.6974482,22.8958125 C1.6974482,10.7175679 11.5774455,0.848244389 23.7659723,0.848244389 L130.701814,0.848244389 C142.886946,0.848244389 152.770338,10.7192643 152.770338,22.8958125 L152.770338,67.1801073 C152.564098,67.3336396 152.430849,67.5787822 152.430849,67.8536134 L152.430849,89.0715985 C152.430849,89.3481262 152.56325,89.5932688 152.770338,89.7468011 L152.770338,89.7468011 Z" id="Stroke-9" stroke="#2CE1D0" sketch:type="MSShapeGroup" mask="url(#mask-8)"></path>
                        </g>
                        <g id="Group-13" transform="translate(6.941069, 5.470174)">
                            <mask id="mask-10" sketch:name="Clip 12" fill="white">
                                <use xlink:href="#path-9"></use>
                            </mask>
                            <g id="Clip-12"></g>
                            <path d="M18.6778713,0 C8.36247858,0 0,8.35605547 0,18.6571353 L0,284.166111 C0,294.469736 8.35823496,302.823247 18.6778713,302.823247 L124.756502,302.823247 C135.071895,302.823247 143.434373,294.467191 143.434373,284.166111 L143.434373,18.6571353 C143.434373,8.35351074 135.076138,0 124.756502,0 L18.6778713,0 L18.6778713,0 Z" id="Stroke-11" stroke="#2CE1D0" stroke-width="2" sketch:type="MSShapeGroup" mask="url(#mask-10)"></path>
                        </g>
                        <g id="Group-16" transform="translate(6.941069, 5.470174)">
                            <mask id="mask-12" sketch:name="Clip 15" fill="white">
                                <use xlink:href="#path-11"></use>
                            </mask>
                            <g id="Clip-15"></g>
                            <path d="M18.6778713,-2.84217094e-14 C8.36247858,-2.84217094e-14 1.42108547e-14,8.35605547 1.42108547e-14,18.6571353 L1.42108547e-14,284.166111 C1.42108547e-14,294.469736 8.35823496,302.823247 18.6778713,302.823247 L124.756502,302.823247 C135.071895,302.823247 143.434373,294.467191 143.434373,284.166111 L143.434373,18.6571353 C143.434373,8.35351074 135.076138,-2.84217094e-14 124.756502,-2.84217094e-14 L18.6778713,-2.84217094e-14 L18.6778713,-2.84217094e-14 Z" id="Stroke-14" stroke="#2CE1D0" stroke-width="2" sketch:type="MSShapeGroup" mask="url(#mask-12)"></path>
                        </g>
                        <g id="Group-20" transform="translate(1.000000, 0.228953)">
                            <mask id="mask-14" sketch:name="Clip 18" fill="white">
                                <use xlink:href="#path-13"></use>
                            </mask>
                            <g id="Clip-18"></g>
                            <g id="Logo" mask="url(#mask-14)">
                                <g transform="translate(46.291253, 65.115041)" id="Oval-1-Copy-+-tr">
                                    <g transform="translate(-0.000000, 1.000000)">
                                        <path d="M30.6330533,57.8954624 L30.6330533,57.8954624 C45.6896661,57.8954624 57.8954624,45.6896661 57.8954624,30.6330533 C57.8954624,15.5764406 45.6896661,3.37064427 30.6330533,3.37064427 C15.5764406,3.37064427 3.37064427,15.5764406 3.37064427,30.6330533 C3.37064427,45.6896661 15.5764406,57.8954624 30.6330533,57.8954624 L30.6330533,57.8954624 Z M30.6330533,60.2661067 L30.6330533,60.2661067 C14.2671699,60.2661067 1,46.9989368 1,30.6330533 C1,14.2671699 14.2671699,1 30.6330533,1 C46.9989368,1 60.2661067,14.2671699 60.2661067,30.6330533 C60.2661067,46.9989368 46.9989368,60.2661067 30.6330533,60.2661067 L30.6330533,60.2661067 Z M15.8417935,31.4920368 L15.8417935,40.0668672 C15.8417935,44.0504498 17.7323073,46.0422411 21.5133349,46.0422411 C22.5598693,46.0422411 23.5388854,45.9409636 24.4503831,45.7046493 C25.2943625,45.4683351 25.4969175,45.1645025 25.4969175,44.489319 L25.4969175,44.1854865 C25.4969175,43.3415071 25.2606033,43.1389521 24.4841423,43.3077479 C23.6739221,43.5440622 22.6611468,43.6453397 21.4795757,43.6453397 C19.4540252,43.6453397 18.3737316,42.6663236 18.3737316,40.0668672 L18.3737316,31.4920368 L23.8427179,31.4920368 C24.6866973,31.4920368 24.8892524,31.2894817 24.8892524,30.4455024 L24.8892524,30.1416698 C24.8892524,29.2976904 24.6866973,29.0951354 23.8427179,29.0951354 L18.3737316,29.0951354 L18.3737316,25.6179404 C18.3737316,24.9089977 18.1711766,24.7064427 17.4622339,24.7064427 L17.2259197,24.7064427 C16.4494587,24.7064427 16.2469036,24.9089977 16.2131445,25.6179404 L15.8417935,29.0951354 L15.8417935,31.4920368 Z M30.6283121,34.7329176 C30.6283121,32.302257 31.4385322,31.154445 33.8691928,31.154445 C34.1730254,31.154445 34.5106171,31.1882042 34.9157272,31.2219634 C35.7597066,31.3570001 35.9622617,31.1882042 35.9622617,30.3442248 L35.9622617,30.0066331 C35.9622617,29.1626537 35.7934658,28.9263395 34.9494864,28.825062 C34.6456538,28.7913028 34.2743029,28.7575436 33.8691928,28.7575436 C30.0206469,28.7575436 28.096374,30.7155758 28.096374,34.5978809 L28.096374,44.6581149 C28.096374,45.5696126 28.3326882,45.7384085 29.1766675,45.7384085 L29.5480185,45.7384085 C30.4595162,45.7384085 30.6283121,45.5696126 30.6283121,44.6581149 L30.6283121,34.7329176 Z" id="Shape" fill="#FFFFFF" sketch:type="MSShapeGroup"></path>
                                    </g>
                                </g>
                            </g>
                            <path d="M0.847026654,68.4311877 L0.847026654,91.7621496 M1.27308615,41.241562 L1.27308615,53.2170763 M0.847026654,96.011854 L0.847026654,119.68381" id="Stroke-17" stroke="#2CE1D0" stroke-linecap="square" sketch:type="MSShapeGroup" mask="url(#mask-14)"></path>
                            <path d="M77.2338933,12.8754214 C78.1717334,12.8754214 78.9313415,12.1162427 78.9313415,11.1789327 C78.9313415,10.2416226 78.1717334,9.48244389 77.2338933,9.48244389 C76.2960532,9.48244389 75.5364451,10.2416226 75.5364451,11.1789327 C75.5364451,12.1162427 76.2960532,12.8754214 77.2338933,12.8754214 L77.2338933,12.8754214 Z" id="Stroke-19" stroke="#2CE1D0" sketch:type="MSShapeGroup" mask="url(#mask-14)"></path>
                        </g>
                        <g id="Group-23" transform="translate(12.033413, 38.551706)">
                            <mask id="mask-16" sketch:name="Clip 22" fill="white">
                                <use xlink:href="#path-15"></use>
                            </mask>
                            <g id="Clip-22"></g>
                            <path d="M1.69829693,0 C0.760456796,0 0,0.762571705 0,1.69648878 L0,234.115451 C0,235.052761 0.76130552,235.81194 1.69829693,235.81194 L130.702663,235.81194 C131.640503,235.81194 132.40096,235.049368 132.40096,234.115451 L132.40096,1.69648878 C132.40096,0.759178728 131.639654,0 130.702663,0 L1.69829693,0 L1.69829693,0 Z" id="Stroke-21" stroke="#2CE1D0" stroke-width="2" sketch:type="MSShapeGroup" mask="url(#mask-16)"></path>
                        </g>
                        <g id="Group-26" transform="translate(1.000000, 1.228953)">
                            <mask id="mask-18" sketch:name="Clip 25" fill="white">
                                <use xlink:href="#path-17"></use>
                            </mask>
                            <g id="Clip-25"></g>
                        </g>
                    </g>
                </g>
            </g>
        </g>
    </g>
</svg>