<?xml version="1.0" standalone="no"?><!DOCTYPE svg PUBLIC "-//W3C//DTD SVG 1.1//EN" "http://www.w3.org/Graphics/SVG/1.1/DTD/svg11.dtd"><svg width="100%" height="100%" viewBox="0 0 700 150" version="1.1" xmlns="http://www.w3.org/2000/svg" xmlns:xlink="http://www.w3.org/1999/xlink" xml:space="preserve" style="fill-rule:evenodd;clip-rule:evenodd;stroke-linejoin:round;stroke-miterlimit:1.41421;"><g id="Layer1"><g><path d="M2.401,47.853l0,65.2c0,23 10.4,34.6 31.4,34.6c6.8,0 13,-0.8 18.6,-2.4c3.4,-1 4.6,-2.2 4.6,-5.6l0,-0.8c0,-3.4 -1.6,-4.8 -4.6,-3.8c-5.6,1.6 -11.8,2.4 -18.8,2.4c-13.4,0 -20.6,-6.6 -20.6,-24.4l0,-55.2l35.8,0c3.8,0 4.6,-1.2 4.6,-4.6l0,-0.8c0,-3.4 -0.8,-4.6 -4.6,-4.6l-35.8,0l0,-22.4c0,-2.6 -0.6,-3.6 -3.6,-3.6l-1,0c-2.6,0 -3.4,0.6 -4,3.6l-2,22.4l0,0Z" style="fill:#2ce1d0;fill-rule:nonzero;"/><path d="M85.001,80.253c0,-16.2 5.4,-24.2 20.8,-24.2c3,0 5.6,0.2 7.8,0.6c3.4,0.6 4.6,-0.2 4.6,-4l0,-1.2c0,-3.4 -0.6,-4.2 -4.4,-4.8c-2.8,-0.4 -5.4,-0.6 -8,-0.6c-21,0 -31.4,11.2 -31.4,33.8l0,61.2c0,3.8 1,4.8 4.8,4.8l1,0c3.8,0 4.8,-1 4.8,-4.8l0,-60.8l0,0Z" style="fill:#2ce1d0;fill-rule:nonzero;"/><path d="M201.201,76.053c0,-20 -13.2,-30 -39.4,-30c-9.4,0 -17.2,0.8 -23.4,2.2c-3.4,0.8 -4.4,1.8 -4.4,5.2l0,1.4c0,3.8 1,4.6 4.4,3.6c6.6,-1.8 14.6,-2.8 24,-2.8c18.4,0 28.2,5.4 28.2,20.4l0,13.8l-25,0c-27.8,0 -40.8,8.4 -40.8,28.6c0,20.2 15.2,29.2 35.2,29.2c28.6,0 41.2,-8.8 41.2,-31.4l0,-40.2l0,0ZM190.601,115.853c0,17.4 -9.2,22.2 -30.6,22.2c-16.4,0 -24.6,-6.6 -24.6,-19.6c0,-14.6 9.2,-19.8 30.6,-19.8l24.6,0l0,17.2Z" style="fill:#2ce1d0;fill-rule:nonzero;"/><path d="M307.001,10.653c0,-3.8 -1,-4.8 -4.8,-4.8l-1.2,0c-3.8,0 -4.8,1 -4.8,4.8l0,51.4c-5,-10.6 -16,-16 -32.6,-16c-29.6,0 -41.2,14.6 -41.2,41.2l0,19.4c0,26.6 12.4,41 42.2,41c28.2,0 42.4,-13.6 42.4,-41l0,-96l0,0ZM233.001,87.053c0,-21.4 7.6,-31 31.6,-31c24,0 31.6,9.6 31.6,31l0,19.6c0,21.4 -7.6,31 -31.6,31c-24,0 -31.6,-9.6 -31.6,-31l0,-19.6Z" style="fill:#2ce1d0;fill-rule:nonzero;"/><path d="M402.601,76.053c0,-20 -13.2,-30 -39.4,-30c-9.4,0 -17.2,0.8 -23.4,2.2c-3.4,0.8 -4.4,1.8 -4.4,5.2l0,1.4c0,3.8 1,4.6 4.4,3.6c6.6,-1.8 14.6,-2.8 24,-2.8c18.4,0 28.2,5.4 28.2,20.4l0,13.8l-25,0c-27.8,0 -40.8,8.4 -40.8,28.6c0,20.2 15.2,29.2 35.2,29.2c28.6,0 41.2,-8.8 41.2,-31.4l0,-40.2l0,0ZM392.001,115.853c0,17.4 -9.2,22.2 -30.6,22.2c-16.4,0 -24.6,-6.6 -24.6,-19.6c0,-14.6 9.2,-19.8 30.6,-19.8l24.6,0l0,17.2Z" style="fill:#2ce1d0;fill-rule:nonzero;"/><path d="M427.401,106.653c0,27.4 14,41 42.2,41c30.2,0 42.4,-14.4 42.4,-41l0,-19.4c0,-26.6 -11.8,-41.2 -41.2,-41.2c-16.8,0 -27.8,5.4 -32.8,16l0,-51.4c0,-3.8 -1,-4.8 -4.8,-4.8l-1,0c-3.8,0 -4.8,1 -4.8,4.8l0,96ZM501.201,106.653c0,21.4 -7.6,31 -31.6,31c-24,0 -31.6,-9.6 -31.6,-31l0,-19.6c0,-21.4 7.6,-31 31.6,-31c24,0 31.6,9.6 31.6,31l0,19.6Z" style="fill:#2ce1d0;fill-rule:nonzero;"/><path d="M535.801,122.053c0,17.4 8.4,24.6 20.6,24.6c1.4,0 2.4,0 3.2,-0.2c3.8,-0.6 4.6,-1.6 4.6,-5l0,-0.8c0,-3.4 -0.8,-4 -4.6,-4l-2.4,0c-7.2,0 -10.8,-5.2 -10.8,-15.8l0,-110.2c0,-3.8 -1,-4.8 -4.8,-4.8l-1,0c-3.8,0 -4.8,1 -4.8,4.8l0,111.4Z" style="fill:#2ce1d0;fill-rule:nonzero;"/><path d="M657.801,84.653c0,-25.6 -14.4,-38.6 -39.8,-38.6c-27,0 -40.6,13.6 -40.6,41l0,19.6c0,29 14,41 43.8,41c11,0 20.6,-1.4 28.8,-4.4c3.8,-1.4 4.4,-1.8 4.4,-5.2l0,-1.2c0,-3.8 -1.2,-4.6 -4.4,-3.6c-8.8,3 -18.4,4.4 -29,4.4c-23.4,0 -33,-8 -33,-29.6l0,-7l64,0c3.8,0 4.6,-1 5.2,-4.8c0.4,-3.6 0.6,-7.4 0.6,-11.6l0,0ZM588.001,83.653c0,-18.6 10,-28 29.8,-28c19.8,0 29.8,9.4 29.8,28l0,8l-59.6,0l0,-8l0,0Z" style="fill:#2ce1d0;fill-rule:nonzero;"/></g><path d="M672.999,136.301c0,3.233 1.133,6.033 3.433,8.333c2.3,2.3 5.067,3.434 8.3,3.434c3.3,0 6.067,-1.134 8.367,-3.434c2.3,-2.3 3.433,-5.1 3.433,-8.333c0,-3.267 -1.133,-6.033 -3.433,-8.333c-2.3,-2.3 -5.067,-3.467 -8.367,-3.467c-3.233,0 -6,1.167 -8.3,3.467c-2.3,2.3 -3.433,5.066 -3.433,8.333ZM684.732,146.468c-2.767,0 -5.167,-1 -7.167,-2.967c-1.966,-2 -2.966,-4.4 -2.966,-7.2c0,-2.8 1,-5.2 2.966,-7.2c2,-2 4.4,-3 7.167,-3c2.833,0 5.233,1 7.2,3c2,1.967 3,4.367 3,7.2c0,2.8 -1,5.2 -3,7.2c-1.967,1.967 -4.367,2.967 -7.2,2.967ZM687.099,141.868c0.4,0.7 0.7,0.9 1.533,0.9l0.267,0c0.833,0 0.933,-0.134 0.533,-0.9l-2.533,-4.534c1.866,-0.433 2.8,-1.666 2.8,-3.7c0,-2.533 -1.467,-3.8 -4.4,-3.8l-1.6,0c-2.367,0 -3.334,1.034 -3.334,3.334l0,8.7c0,0.766 0.2,0.9 0.9,0.9l0.3,0c0.767,0 0.9,-0.134 0.9,-0.9l0,-4.334l2.3,0l2.334,4.334ZM685.265,131.734c1.634,0 2.267,0.6 2.267,1.967c0,1.433 -0.633,1.967 -2.467,1.967l-2.6,0l0,-2.534c0,-0.933 0.467,-1.4 1.4,-1.4l1.4,0Z" style="fill:#2ce1d0;fill-rule:nonzero;"/></g></svg>